<svg width="400" height="79" viewBox="0 0 400 79" fill="none" xmlns="http://www.w3.org/2000/svg">
<path d="M243.122 15.1005C246.737 15.1005 248.857 17.3635 248.857 20.0379C248.857 21.1077 248.359 21.7249 247.153 21.7249H236.348C236.93 18.0628 239.049 15.1005 243.122 15.1005ZM244.411 34.7271C239.507 34.7271 236.14 30.325 236.14 24.0706C236.14 23.5767 236.181 23.042 236.223 22.5481H252.057C251.808 17.0343 247.86 14.2773 243.205 14.2773C237.345 14.2773 232.981 18.7213 232.981 25.1398C232.981 30.8189 237.013 36.0029 243.413 36.0029C246.863 36.0029 249.896 34.1512 251.766 30.9416L251.06 30.5303C249.231 33.3286 247.195 34.7271 244.411 34.7271Z" fill="#FFF9F2"/>
<path d="M217.114 34.481C212.75 34.481 210.007 30.4896 210.007 25.1404C210.007 19.7092 212.626 15.2652 217.447 15.2652C221.436 15.2652 224.761 18.3927 224.761 24.5232C224.761 30.7776 221.977 34.481 217.114 34.481ZM227.171 31.8888V0L220.813 0.987807V1.64578C223.888 1.72781 224.47 1.85171 224.47 3.9088V18.6806C223.223 16.1704 220.647 14.2774 216.99 14.2774C211.213 14.2774 206.849 19.174 206.849 25.511C206.849 31.6415 210.963 36.0029 216.325 36.0029C219.815 36.0029 222.849 34.1105 224.47 30.695V35.7975L230.829 34.8103V34.1518C227.753 34.0692 227.171 33.9458 227.171 31.8888Z" fill="#FFF9F2"/>
<path d="M198.244 32.0115C195.959 33.4519 194.171 34.6451 191.844 34.6451C189.184 34.6451 188.145 32.9167 188.145 31.2709C188.145 27.7734 191.428 26.0863 195.751 25.0991L198.244 24.5226V32.0115ZM200.862 31.3122L200.987 19.7499C201.028 16.2931 198.951 14.2773 194.088 14.2773C191.636 14.2773 189.059 14.7707 187.605 15.5531C186.524 16.0878 186.109 16.705 186.109 17.4456C186.109 18.2682 186.815 18.968 187.771 18.968C189.434 17.0343 191.096 15.1413 194.047 15.1413C197.164 15.1413 198.244 17.2809 198.244 20.9023V23.6174L194.836 24.3993C189.018 25.7158 185.111 28.1434 185.111 31.5589C185.111 34.1099 187.439 36.0029 190.597 36.0029C193.132 36.0029 195.376 34.933 198.368 32.876C198.701 34.6038 199.907 36.1262 203.024 35.5503L203.439 33.9452C201.361 34.1099 200.82 33.246 200.862 31.3122Z" fill="#FFF9F2"/>
<path d="M172.071 15.1005C175.687 15.1005 177.807 17.3635 177.807 20.0379C177.807 21.1077 177.308 21.7249 176.103 21.7249H165.298C165.879 18.0628 167.999 15.1005 172.071 15.1005ZM173.36 34.7271C168.456 34.7271 165.09 30.325 165.09 24.0706C165.09 23.5767 165.131 23.042 165.173 22.5481H181.007C180.757 17.0343 176.81 14.2773 172.155 14.2773C166.295 14.2773 161.931 18.7213 161.931 25.1398C161.931 30.8189 165.962 36.0029 172.363 36.0029C175.812 36.0029 178.845 34.1512 180.716 30.9416L180.009 30.5303C178.181 33.3286 176.144 34.7271 173.36 34.7271Z" fill="#FFF9F2"/>
<path d="M114.708 35.5095H124.89V34.8103C120.775 34.563 120.277 34.5223 120.277 31.1068V4.85526L136.361 35.5095H136.983L152.777 2.75687V31.1068C152.777 34.5223 152.278 34.563 148.163 34.8103V35.5095H160.423V34.8103C156.309 34.563 155.81 34.5223 155.81 31.1068V4.93786C155.81 1.5224 156.309 1.48166 160.423 1.23443V0.535156H152.777L137.774 31.6415L121.566 0.535156H114.708V1.23443C118.822 1.48166 119.321 1.5224 119.321 4.93786V31.1068C119.321 34.5223 118.822 34.563 114.708 34.8103V35.5095Z" fill="#FFF9F2"/>
<path d="M89.8832 15.1005C93.4987 15.1005 95.6187 17.3635 95.6187 20.0379C95.6187 21.1077 95.1198 21.7249 93.9147 21.7249H83.1095C83.6912 18.0628 85.8107 15.1005 89.8832 15.1005ZM91.1718 34.7271C86.2678 34.7271 82.9015 30.325 82.9015 24.0706C82.9015 23.5767 82.9427 23.042 82.9844 22.5481H98.8186C98.5689 17.0343 94.6215 14.2773 89.9661 14.2773C84.1067 14.2773 79.7427 18.7213 79.7427 25.1398C79.7427 30.8189 83.7741 36.0029 90.1741 36.0029C93.6238 36.0029 96.6575 34.1512 98.5272 30.9416L97.8215 30.5303C95.9924 33.3286 93.9558 34.7271 91.1718 34.7271Z" fill="#FFF9F2"/>
<path d="M73.6587 34.6861V0.0410156L67.2998 1.02882V1.6868C70.3752 1.76883 70.9569 1.89216 70.9569 3.94981V34.6861L67.2998 34.7274V35.5093H77.3158V34.7274L73.6587 34.6861Z" fill="#FFF9F2"/>
<path d="M60.5102 34.6861V0.0410156L54.1514 1.02882V1.6868C57.2268 1.76883 57.8085 1.89216 57.8085 3.94981V34.6861L54.1514 34.7274V35.5093H64.1674V34.7274L60.5102 34.6861Z" fill="#FFF9F2"/>
<path d="M42.7232 15.1005C46.3386 15.1005 48.458 17.3635 48.458 20.0379C48.458 21.1077 47.9592 21.7249 46.7546 21.7249H35.9489C36.5306 18.0628 38.6506 15.1005 42.7232 15.1005ZM44.0112 34.7271C39.1072 34.7271 35.7409 30.325 35.7409 24.0706C35.7409 23.5767 35.7826 23.042 35.8243 22.5481H51.658C51.4089 17.0343 47.4609 14.2773 42.806 14.2773C36.946 14.2773 32.582 18.7213 32.582 25.1398C32.582 30.8189 36.6135 36.0029 43.0134 36.0029C46.4632 36.0029 49.4969 34.1512 51.3671 30.9416L50.6603 30.5303C48.8323 33.3286 46.7957 34.7271 44.0112 34.7271Z" fill="#FFF9F2"/>
<path d="M14.2548 34.6864L7.64685 34.7277V17.6928H14.6703C21.32 17.6928 24.52 20.8197 24.52 26.1689C24.52 31.5181 21.2365 34.6451 14.2548 34.6864ZM7.64685 1.35776H14.6291C20.7383 1.35776 23.6474 4.32005 23.6474 9.13463C23.6474 14.0312 20.6548 16.7876 14.7537 16.8289L7.64685 16.8702V1.35776ZM18.7017 17.2402C23.772 16.1703 27.1383 13.2488 27.1383 9.13463C27.1383 3.74412 21.6525 0.535156 15.0034 0.535156H0V1.23443C4.11428 1.48166 4.61314 1.5224 4.61314 4.93786V31.1068C4.61314 34.5217 4.11428 34.563 0 34.8103V35.5095H14.4211C21.9434 35.5095 28.0114 32.0941 28.0114 26.1689C28.0114 21.3962 24.3537 18.1867 18.7017 17.2402Z" fill="#FFF9F2"/>
<path d="M301.946 8.84813C303.11 8.84813 304.025 7.94292 304.025 6.79105C304.025 5.63917 303.11 4.7334 301.946 4.7334C300.782 4.7334 299.869 5.63861 299.869 6.79105C299.869 7.94349 300.783 8.84813 301.946 8.84813Z" fill="#FFF9F2"/>
<path d="M391.064 15.1048C394.68 15.1048 396.799 17.3679 396.799 20.0427C396.799 21.112 396.3 21.7298 395.096 21.7298H384.291C384.872 18.0671 386.992 15.1048 391.064 15.1048ZM392.353 34.732C387.449 34.732 384.082 30.3293 384.082 24.0749C384.082 23.581 384.124 23.0463 384.166 22.5524H400C399.75 17.0386 395.802 14.2822 391.147 14.2822C385.288 14.2822 380.924 18.7262 380.924 25.1447C380.924 30.8232 384.955 36.0072 391.355 36.0072C394.805 36.0072 397.839 34.1561 399.708 30.9465L399.002 30.5347C397.174 33.3329 395.137 34.732 392.353 34.732Z" fill="#FFF9F2"/>
<path d="M367.243 29.5054C363.835 29.5054 361.716 26.5018 361.716 22.3051C361.716 18.1083 363.835 15.1041 367.243 15.1041C370.61 15.1041 372.73 18.1077 372.73 22.3051C372.73 26.5024 370.61 29.5054 367.243 29.5054ZM376.095 15.146C376.719 15.146 377.55 15.3932 378.131 16.1332C378.797 15.8045 379.212 15.1873 379.212 14.4467C379.212 13.4182 378.34 12.6357 377.092 12.6357C375.347 12.6357 374.1 14.1582 373.145 16.4218C371.649 15.1047 369.654 14.2821 367.243 14.2821C362.298 14.2821 358.848 17.7388 358.848 22.3469C358.848 25.5559 360.594 28.2308 363.378 29.506C360.012 30.4525 358.35 32.057 358.35 34.032C358.35 36.583 360.677 38.5586 366.163 38.476L368.823 38.4353C372.688 38.394 376.262 39.2992 376.262 42.7967C376.262 46.5408 372.563 48.8865 368.158 48.8865C363.628 48.8865 360.76 46.5408 361.176 41.4389C359.471 41.3155 358.432 42.3848 358.432 43.9899C358.432 47.4461 362.048 49.997 367.16 49.997C372.604 49.997 378.423 46.8288 378.423 41.6855C378.423 36.7895 373.893 35.6371 369.072 35.8017L366.329 35.8837C362.381 36.0484 360.303 35.2671 360.303 33.374C360.303 31.8929 361.425 30.741 364.417 29.9178C365.29 30.1651 366.246 30.3292 367.243 30.3292C372.231 30.3292 375.639 26.7909 375.639 22.3056C375.639 20.2485 374.932 18.3968 373.685 16.9977C374.267 15.6806 374.973 15.146 376.095 15.146Z" fill="#FFF9F2"/>
<path d="M349.257 32.0154C346.971 33.4552 345.184 34.649 342.857 34.649C340.197 34.649 339.158 32.9206 339.158 31.2748C339.158 27.7773 342.441 26.0902 346.763 25.1024L349.257 24.5265V32.0154ZM351.875 31.3161L352 19.7538C352.042 16.2976 349.963 14.2812 345.102 14.2812C342.649 14.2812 340.073 14.7752 338.618 15.557C337.537 16.0917 337.122 16.7089 337.122 17.4495C337.122 18.2726 337.829 18.9719 338.784 18.9719C340.446 17.0382 342.109 15.1452 345.059 15.1452C348.176 15.1452 349.257 17.2854 349.257 20.9062V23.6213L345.849 24.4032C340.031 25.7202 336.125 28.1473 336.125 31.5628C336.125 34.1138 338.451 36.0068 341.61 36.0068C344.146 36.0068 346.39 34.9369 349.382 32.8793C349.714 34.6077 350.919 36.1301 354.036 35.5536L354.452 33.9491C352.374 34.1138 351.834 33.2499 351.875 31.3161Z" fill="#FFF9F2"/>
<path d="M329.457 34.6906V0.0449219L323.099 1.03273V1.6907C326.174 1.77274 326.756 1.89664 326.756 3.95429V34.6906L323.099 34.7319V35.5132H333.115V34.7319L329.457 34.6906Z" fill="#FFF9F2"/>
<path d="M316.31 34.6906V0.0449219L309.951 1.03273V1.6907C313.026 1.77274 313.608 1.89664 313.608 3.95429V34.6906L309.951 34.7319V35.5132H319.967V34.7319L316.31 34.6906Z" fill="#FFF9F2"/>
<path d="M303.401 34.6904V14.4873L297.043 15.4745V16.1331C300.118 16.2151 300.7 16.339 300.7 18.3961V34.6904L297.043 34.7317V35.513H307.059V34.7317L303.401 34.6904Z" fill="#FFF9F2"/>
<path d="M287.786 0.538086V1.23736C290.644 1.3788 291.979 1.67129 291.237 3.70461C290.494 5.73794 279.371 31.4181 279.371 31.4181L267.479 4.50176C266.388 1.56663 267.522 1.35956 271.05 1.23736V0.538086H259.456V1.23736C262.905 1.40256 263.154 1.69109 264.36 4.81745C265.565 7.94438 277.876 35.5125 277.876 35.5125H278.875C278.875 35.5125 288.95 13.3762 291.152 7.53308C293.355 1.68996 293.729 1.40256 297.303 1.23736V0.538086H287.786Z" fill="#FFF9F2"/>
<path d="M277.245 78.689C280.717 78.689 283.159 76.7796 283.159 73.9027C283.159 71.4587 281.617 70.2366 278.505 69.5492L276.114 69.0146C274.314 68.6073 273.311 67.9963 273.311 66.6215C273.311 65.1448 274.545 63.9737 276.782 63.9737C279.045 63.9737 280.537 65.2721 280.768 66.9779L282.851 66.7233C282.645 64.2283 280.588 62.1152 276.782 62.1152C273.105 62.1152 271.125 64.2283 271.125 66.6469C271.125 69.1928 272.951 70.3639 275.162 70.8731L277.605 71.4332C279.971 71.9679 280.974 72.6552 280.974 74.0809C280.974 75.5321 279.611 76.8305 277.245 76.8305C274.237 76.8305 272.899 74.6156 272.771 73.2153L270.688 73.4699C270.868 76.2959 273.337 78.689 277.245 78.689ZM265.66 78.3835V76.5759H256.891V71.1532H264.194V69.3456H256.891V64.2538H265.506V62.4207H254.732V78.3835H265.66ZM236.712 70.3894C236.712 65.8322 239.155 63.9737 241.675 63.9737C244.658 63.9737 246.124 65.9595 246.329 67.8435L248.412 67.5889C248.206 64.432 245.558 62.1152 241.701 62.1152C237.921 62.1152 234.449 64.712 234.449 70.4149C234.449 76.1177 237.921 78.689 241.701 78.689C245.558 78.689 248.206 76.3722 248.412 73.2153L246.329 72.9607C246.124 74.8447 244.658 76.8305 241.675 76.8305C239.155 76.8305 236.712 74.9465 236.712 70.3894ZM228.082 78.3835V62.4207H225.922V75.3539L217.925 62.4207H215.2V78.3835H217.36V65.3485L225.64 78.3835H228.082ZM209.234 78.3835V76.5759H200.465V71.1532H207.768V69.3456H200.465V64.2538H209.08V62.4207H198.305V78.3835H209.234ZM184.481 78.3835C188.827 78.3835 191.938 76.0667 191.938 70.3639C191.938 64.6611 188.827 62.4207 184.481 62.4207H179.158V78.3835H184.481ZM181.318 76.5759V64.2283H184.481C187.618 64.2283 189.675 65.9341 189.675 70.3639C189.675 74.8193 187.618 76.5759 184.481 76.5759H181.318ZM172.074 62.4207H169.914V78.3835H172.074V62.4207ZM157.746 78.689C161.218 78.689 163.661 76.7796 163.661 73.9027C163.661 71.4587 162.118 70.2366 159.006 69.5492L156.615 69.0146C154.815 68.6073 153.812 67.9963 153.812 66.6215C153.812 65.1448 155.046 63.9737 157.284 63.9737C159.546 63.9737 161.038 65.2721 161.269 66.9779L163.352 66.7233C163.146 64.2283 161.089 62.1152 157.284 62.1152C153.606 62.1152 151.626 64.2283 151.626 66.6469C151.626 69.1928 153.452 70.3639 155.664 70.8731L158.106 71.4332C160.472 71.9679 161.475 72.6552 161.475 74.0809C161.475 75.5321 160.112 76.8305 157.746 76.8305C154.738 76.8305 153.401 74.6156 153.272 73.2153L151.189 73.4699C151.369 76.2959 153.838 78.689 157.746 78.689ZM146.162 78.3835V76.5759H137.394V71.1532H144.697V69.3456H137.394V64.2538H146.008V62.4207H135.234V78.3835H146.162ZM122.652 69.7784H119.001V64.2538H122.652C124.375 64.2538 126.252 64.712 126.252 66.8761C126.252 69.0655 124.375 69.7784 122.652 69.7784ZM119.001 78.3835V71.535H122.292C126.792 71.535 125.481 76.8305 126.998 78.3835H129.312C127.538 76.3213 129.107 70.975 123.938 70.7967C126.895 70.6694 128.515 68.8364 128.515 66.8506C128.515 63.5155 125.995 62.4207 122.961 62.4207H116.841V78.3835H119.001Z" fill="#FFF9F2"/>
</svg>
