<?xml version="1.0" encoding="UTF-8"?>
<svg id="Layer_1" xmlns="http://www.w3.org/2000/svg" version="1.1" viewBox="0 0 342.8 62.3">
  <!-- Generator: Adobe Illustrator 29.8.1, SVG Export Plug-In . SVG Version: 2.1.1 Build 2)  -->
  <defs>
    <style>
      .st0 {
        fill: #fff9f2;
      }
    </style>
  </defs>
  <path class="st0" d="M50.2,60.2c7-.4,7.9-.5,7.9-6.4V8.7c0-5.9-.8-6-7.9-6.4v-1.2h20.9v1.2c-7,.4-7.9.5-7.9,6.4v45.1c0,5.9.9,6,7.9,6.4v1.2h-20.9v-1.2h0Z"/>
  <path class="st0" d="M102.7,25s-.9,4.5-1.1,4.4c-1.3-.1-2.4-.2-3.1-.2-5.8,0-8.2,2.4-10.6,6.6v24.2h6.2v1.4h-17.1v-1.3h6.2v-28.2c0-3.5-1-3.8-6.2-3.9v-1.1l10.8-1.7v8.6c2.2-4.3,6.2-8.8,12.8-8.8s1.3,0,2,0h0Z"/>
  <path class="st0" d="M124.6,60.1v1.3h-17.1v-1.3h6.2v-28.2c0-3.5-1-3.8-6.2-3.9v-1.1l10.8-1.7v34.8h6.2c0,0,0,0,0,0Z"/>
  <path class="st0" d="M112.4,11.8c0-2,1.6-3.6,3.6-3.6s3.6,1.6,3.6,3.6-1.6,3.6-3.6,3.6-3.6-1.6-3.6-3.6Z"/>
  <path class="st0" d="M130,50.6h1.4c.7,6.5,5.9,10.4,11.2,10.4s7.9-2.9,7.9-6.6-3.6-6.6-6.9-8.1l-3.6-1.6c-6.1-2.8-9.1-6-9.1-10.6s4.8-9.1,11.1-9.1,6.6,1.9,8.1,1.9,1.3-.4,1.6-1.3h1.1v10h-1.4c-.9-6.5-5-9.3-9.4-9.3s-7,2.3-7,6.1,1.8,6,7.4,8.2l1.2.5c6.7,2.6,11,5.4,11,11.3s-6.2,10-12.1,10-7.9-2.6-9.5-2.6-1.6.7-1.8,1.6h-1.1v-10.7h0Z"/>
  <path class="st0" d="M179.6,60.2c7-.4,7.9-.5,7.9-6.4V8.7c0-5.9-.9-6-7.9-6.4v-1.2h20.9v1.2c-7,.4-7.9.5-7.9,6.4v45.1c0,4.9.5,6.2,6,6.2h5.2c20.6,0,18.3-.6,21.6-16.5h1.3l-2.4,17.9h-44.8v-1.2h0Z"/>
  <path class="st0" d="M248.3,42.3l5.8-1.3v-4.7c0-6.2-1.8-9.9-7.2-9.9s-7.9,3.3-10.7,6.6c-1.6,0-2.8-1.2-2.8-2.6s.7-2.3,2.6-3.3c2.5-1.4,6.9-2.2,11.1-2.2,8.3,0,11.9,3.5,11.8,9.4l-.2,19.9c0,3.3.9,4.8,4.4,4.5l-.7,2.8c-5.3,1-7.4-1.6-7.9-4.6-5.1,3.5-8.9,5.4-13.3,5.4s-9.4-3.3-9.4-7.7,6.7-10.1,16.6-12.3h0ZM243.2,60c4,0,7-2.1,10.9-4.5v-12.9l-4.3,1c-7.4,1.7-13,4.6-13,10.6s1.8,5.8,6.3,5.8h0Z"/>
  <path class="st0" d="M308,60.1v1.3h-17.1v-1.3h6.2v-20.6c0-5.5-.5-7.8-1.4-9.3-.9-1.6-2.6-3-5.6-3s-7.1,2.1-11.1,8.5v24.3h6.2v1.4h-17.1v-1.3h6.2v-28.2c0-3.5-1-3.8-6.2-3.9v-1.1l10.9-1.7v8.2c3.5-5.4,7.1-8.6,13-8.6s6,1.1,7.5,3c1.4,1.9,2.2,3.9,2.2,10.1v22h6.2c0,0,0,0,0,0Z"/>
  <path class="st0" d="M341.1,52.8l1.2.7c-3.2,5.5-8.4,8.7-14.3,8.7-10.9,0-17.8-8.9-17.8-18.7s7.5-18.7,17.5-18.7,14.7,4.8,15.1,14.3h-27c0,.8-.1,1.8-.1,2.6,0,10.8,5.8,18.4,14.1,18.4s8.2-2.4,11.4-7.2h0ZM316,37.7h18.4c2.1,0,2.9-1.1,2.9-2.9,0-4.6-3.6-8.5-9.8-8.5s-10.6,5.1-11.6,11.4Z"/>
  <path class="st0" d="M9.9,8.7C6.5,12.9,3.2,15.3,0,15.7l1-3.9c2.9,0,10.4-5.3,13.7-11.8h.4v53.8c0,5.9.9,6,7.7,6.4v1.2H2.2v-1.2c6.8-.4,7.7-.5,7.7-6.4V8.7Z"/>
</svg>