<?xml version="1.0" encoding="UTF-8"?>
<svg id="Layer_1" data-name="Layer 1" xmlns="http://www.w3.org/2000/svg" viewBox="0 0 2044.97 433.48">
  <defs>
    <style>
      .cls-1 {
        fill: #fbf1e6;
      }
    </style>
  </defs>
  <path class="cls-1" d="M1590.3,70.78V9.3h22.22V1.55h-53.74v7.75h22.22v61.48h9.3Z"/>
  <path class="cls-1" d="M1523.13,1.55h-10.85l-26.86,69.75h9.81l6.72-18.08h30.48l6.72,18.08h10.33l-26.86-69.75h.51ZM1505.05,44.95l12.4-33.07,12.4,33.07h-24.8Z"/>
  <path class="cls-1" d="M1403.78,72.33c14.99,0,25.32-8.27,25.32-20.67s-6.72-16.02-20.15-19.12l-10.33-2.58c-7.75-1.55-11.89-4.65-11.89-10.33s5.17-11.37,14.99-11.37,16.01,5.68,17.05,12.92l8.78-1.03c-1.03-10.85-9.82-20.15-26.35-20.15s-24.28,9.3-24.28,19.63,7.75,16.02,17.56,18.6l10.34,2.58c10.33,2.58,14.46,5.17,14.46,11.37s-5.68,11.88-16.01,11.88-18.6-9.82-19.12-16.02l-8.78,1.03c1.03,12.4,11.36,22.73,28.41,22.73"/>
  <path class="cls-1" d="M1353.67,70.78v-7.75h-37.72v-23.77h31.52v-7.75h-31.52V9.3h37.2V1.55h-46.5v69.23h47.02Z"/>
  <path class="cls-1" d="M1228.12,36.17c0-19.63,10.33-27.9,21.18-27.9s19.12,8.78,20.15,17.05l8.78-1.03c-1.03-13.95-12.4-23.77-28.93-23.77s-31.52,11.37-31.52,36.17,14.99,36.17,31.52,36.17,27.9-10.33,28.93-23.77l-8.78-1.03c-1.03,8.27-7.23,17.05-20.15,17.05s-21.18-8.27-21.18-27.9"/>
  <path class="cls-1" d="M1190.4,70.78V1.55h-9.3v56.32l-34.1-56.32h-11.88v69.23h9.3V13.95l35.65,56.83h10.33Z"/>
  <path class="cls-1" d="M1108.77,70.78v-7.75h-37.72v-23.77h31.52v-7.75h-31.52V9.3h37.2V1.55h-46.5v69.23h47.02Z"/>
  <path class="cls-1" d="M1001.82,1.55h-23.25v69.75h23.25c18.6,0,32.03-10.33,32.03-35.13s-13.43-34.62-32.03-34.62ZM1001.82,63.03h-13.44V9.3h13.44c13.43,0,22.21,7.23,22.21,26.87s-8.78,26.87-22.21,26.87Z"/>
  <path class="cls-1" d="M947.57,1.55h-9.3v69.75h9.3V1.55Z"/>
  <path class="cls-1" d="M885.57,72.33c14.98,0,25.32-8.27,25.32-20.67s-6.72-16.02-20.15-19.12l-10.33-2.58c-7.75-1.55-11.88-4.65-11.88-10.33s5.17-11.37,14.98-11.37,16.02,5.68,17.05,12.92l8.78-1.03c-1.03-10.85-9.82-20.15-26.35-20.15s-24.28,9.3-24.28,19.63,7.75,16.02,17.57,18.6l10.33,2.58c10.33,2.58,14.47,5.17,14.47,11.37s-5.68,11.88-16.02,11.88-18.6-9.82-19.12-16.02l-8.78,1.03c1.03,12.4,11.37,22.73,28.42,22.73"/>
  <path class="cls-1" d="M834.93,70.78v-7.75h-37.72v-23.77h31.52v-7.75h-31.52V9.3h37.2V1.55h-46.5v69.23h47.02Z"/>
  <path class="cls-1" d="M738.83,37.72c12.92-.52,19.63-8.78,19.63-17.05,0-14.47-10.85-19.12-23.77-19.12h-26.35v69.75h9.3v-29.97h14.47c19.63,0,13.95,23.25,20.15,29.97h9.82c-7.75-8.78-1.03-32.55-23.25-33.07v-.52ZM717.65,33.58V9.3h16.02c7.23,0,15.5,2.07,15.5,11.37s-8.27,12.92-15.5,12.92h-16.02Z"/>
  <path class="cls-1" d="M642.22,70.78v-7.75h-37.72v-23.77h31.52v-7.75h-31.52V9.3h37.2V1.55h-46.5v69.23h47.02Z"/>
  <path class="cls-1" d="M563.68,70.78V1.55h-9.3v29.97h-33.07V1.55h-9.82v69.23h9.82v-31.52h33.07v31.52h9.3Z"/>
  <path class="cls-1" d="M465,70.78V9.3h22.22V1.55h-53.73v7.75h22.22v61.48h9.3Z"/>
  <path class="cls-1" d="M1247.75,354.95c-24.8,0-42.37-22.73-42.37-54.77s0-5.17,0-7.75h80.6c-1.03-28.42-21.18-42.88-44.95-42.88s-52.18,22.73-52.18,55.8,20.67,55.8,53.22,55.8,33.06-9.3,42.88-26.35l-3.62-2.07c-9.3,14.47-19.63,21.7-34.1,21.7l.52.52ZM1241.55,253.68c18.6,0,29.45,11.88,29.45,25.32s-2.58,8.78-8.78,8.78h-55.29c3.1-19.12,13.95-34.1,34.62-34.1Z"/>
  <path class="cls-1" d="M1159.92,340.48v-164.3l-32.55,5.17v3.62c15.5,0,18.6,1.03,18.6,11.88v75.95c-6.2-12.92-19.64-22.73-38.24-22.73-29.45,0-51.66,25.32-51.66,57.87s21.18,54.25,48.56,54.25,33.07-9.82,41.34-27.38v26.35l32.55-5.17v-3.62c-15.5,0-18.6-1.03-18.6-11.88ZM1108.77,353.92c-22.22,0-36.17-20.67-36.17-48.05s13.43-51.15,38.23-51.15,37.2,16.02,37.2,47.53-14.46,51.15-39.26,51.15v.52Z"/>
  <path class="cls-1" d="M1025.58,337.38v-59.42c1.04-17.57-9.81-28.42-34.61-28.42s-25.83,2.58-33.07,6.72c-5.68,2.58-7.75,5.68-7.75,9.82s3.62,7.75,8.27,7.75c8.27-9.82,17.05-19.63,32.03-19.63s21.18,10.85,21.18,29.45v13.95l-17.56,4.13c-29.45,6.72-49.6,19.12-49.6,36.68s11.88,22.73,27.9,22.73,24.28-5.68,39.78-16.02c1.55,8.78,7.75,16.53,23.77,13.95l2.06-8.27c-10.85,1.03-13.43-3.62-12.91-13.43h.51ZM1012.15,341c-11.88,7.23-20.67,13.43-32.55,13.43s-19.12-8.78-19.12-17.57c0-18.08,16.53-26.87,38.75-32.03l12.92-3.1v39.27Z"/>
  <path class="cls-1" d="M885.05,354.95c-24.8,0-42.37-22.73-42.37-54.77s0-5.17,0-7.75h80.6c-1.03-28.42-21.18-42.88-44.95-42.88s-52.18,22.73-52.18,55.8,20.67,55.8,53.22,55.8,33.07-9.3,42.88-26.35l-3.62-2.07c-9.3,14.47-19.63,21.7-34.1,21.7l.52.52ZM878.33,253.68c18.6,0,29.45,11.88,29.45,25.32s-2.58,8.78-8.78,8.78h-55.28c3.1-19.12,13.95-34.1,34.62-34.1Z"/>
  <path class="cls-1" d="M585.9,359.08h52.18v-3.62c-21.18-1.03-23.77-1.55-23.77-19.12v-135.37l82.15,158.1h3.1l80.6-168.95v146.22c0,17.57-2.58,17.57-23.77,19.12v3.62h62.52v-3.62c-21.18-1.03-23.77-1.55-23.77-19.12v-134.85c0-17.57,2.58-17.57,23.77-19.12v-3.62h-39.27l-76.47,160.17-82.67-160.17h-35.13v3.62c21.18,1.03,23.77,1.55,23.77,19.12v134.85c0,17.57-2.58,17.57-23.77,19.12v3.62h.52Z"/>
  <path class="cls-1" d="M465.52,354.95c-24.8,0-42.37-22.73-42.37-54.77s0-5.17,0-7.75h80.6c-1.03-28.42-21.18-42.88-44.95-42.88s-52.18,22.73-52.18,55.8,20.67,55.8,53.22,55.8,33.07-9.3,42.88-26.35l-3.62-2.07c-9.3,14.47-19.63,21.7-34.1,21.7l.52.52ZM458.8,253.68c18.6,0,29.45,11.88,29.45,25.32s-2.58,8.78-8.78,8.78h-55.28c3.1-19.12,13.95-34.1,34.62-34.1Z"/>
  <path class="cls-1" d="M376.13,354.95v-178.77l-32.55,5.17v3.62c15.5,0,18.6,1.03,18.6,11.88v158.62h-18.6v4.13h51.15v-4.13h-18.6v-.52Z"/>
  <path class="cls-1" d="M308.97,354.95v-178.77l-32.55,5.17v3.62c15.5,0,18.6,1.03,18.6,11.88v158.62h-18.6v4.13h51.15v-4.13h-18.6v-.52Z"/>
  <path class="cls-1" d="M224.75,354.95c-24.8,0-42.37-22.73-42.37-54.77s0-5.17,0-7.75h80.6c-1.03-28.42-21.18-42.88-44.95-42.88s-52.18,22.73-52.18,55.8,20.67,55.8,53.22,55.8,33.07-9.3,42.88-26.35l-3.62-2.07c-9.3,14.47-19.63,21.7-34.1,21.7l.52.52ZM218.03,253.68c18.6,0,29.45,11.88,29.45,25.32s-2.58,8.78-8.78,8.78h-55.28c3.1-19.12,13.95-34.1,34.62-34.1Z"/>
  <path class="cls-1" d="M95.58,265.05c25.83-5.68,42.88-20.67,42.88-41.85s-27.9-44.43-62-44.43H0v3.62c21.18,1.03,23.77,1.55,23.77,19.12v134.85c0,17.57-2.58,17.57-23.77,19.12v3.62h73.88c38.23,0,69.23-17.57,69.23-48.05s-18.6-41.33-47.53-45.98ZM39.27,182.9h35.65c31,0,45.98,15.5,45.98,40.3s-15.5,39.27-45.47,39.78h-36.17v-80.08ZM72.85,354.95h-33.58v-87.83h35.65c34.1,0,50.12,16.02,50.12,43.92s-16.53,43.92-52.18,43.92Z"/>
  <path class="cls-1" d="M1545.35,221.65c6.2,0,10.85-4.65,10.85-10.85s-4.65-10.85-10.85-10.85-10.85,4.65-10.85,10.85,4.65,10.85,10.85,10.85Z"/>
  <path class="cls-1" d="M2006.73,354.95c-24.8,0-42.36-22.73-42.36-54.77s0-5.17,0-7.75h80.6c-1.04-28.42-21.19-42.88-44.95-42.88s-52.19,22.73-52.19,55.8,20.67,55.8,53.22,55.8,33.07-9.3,42.88-26.35l-3.61-2.07c-9.3,14.47-19.64,21.7-34.1,21.7l.51.52ZM2000.53,253.68c18.6,0,29.45,11.88,29.45,25.32s-2.58,8.78-8.78,8.78h-55.28c3.1-19.12,13.95-34.1,34.61-34.1Z"/>
  <path class="cls-1" d="M1924.07,254.2c3.1,0,7.23,1.03,10.33,5.17,3.62-1.55,5.68-4.65,5.68-8.78s-4.65-9.3-10.85-9.3-15.5,7.75-20.15,19.63c-7.75-6.72-17.56-10.85-29.96-10.85-25.32,0-42.89,17.57-42.89,41.33s8.79,30.48,23.25,36.68c-17.05,4.65-25.83,12.92-25.83,23.25s11.88,23.25,39.78,22.73h13.44c19.63,0,38.23,4.13,38.23,22.22s-19.12,31.52-41.33,31.52-37.72-11.88-35.65-38.23c-8.79-.52-13.95,4.65-13.95,12.92,0,17.57,18.6,31,44.43,31s57.35-16.53,57.35-42.88-23.25-31-47.53-30.48h-13.95c-20.15,1.03-31-2.58-31-12.4s5.68-13.43,21.18-17.57c4.65,1.03,9.3,2.07,14.47,2.07,25.31,0,42.88-18.08,42.88-41.33s-3.62-20.15-9.82-27.38c3.1-6.72,6.72-9.3,12.4-9.3h-.51ZM1878.6,328.08c-17.57,0-28.42-15.5-28.42-37.2s10.85-37.2,28.42-37.2,27.9,15.5,27.9,37.2-10.85,37.2-27.9,37.2Z"/>
  <path class="cls-1" d="M1800.07,337.38v-59.42c1.03-17.57-9.82-28.42-34.62-28.42s-25.83,2.58-33.07,6.72c-5.68,2.58-7.75,5.68-7.75,9.82s3.62,7.75,8.27,7.75c8.27-9.82,17.05-19.63,32.03-19.63s21.19,10.85,21.19,29.45v13.95l-17.57,4.13c-29.45,6.72-49.6,19.12-49.6,36.68s11.88,22.73,27.9,22.73,24.28-5.68,39.78-16.02c1.55,8.78,7.75,16.53,23.77,13.95l2.07-8.27c-10.85,1.03-13.44-3.62-12.92-13.43h.52ZM1787.15,341c-11.88,7.23-20.67,13.43-32.55,13.43s-19.12-8.78-19.12-17.57c0-18.08,16.54-26.87,38.75-32.03l12.92-3.1v39.27Z"/>
  <path class="cls-1" d="M1685.88,354.95v-178.77l-32.55,5.17v3.62c15.5,0,18.6,1.03,18.6,11.88v158.62h-18.6v4.13h51.15v-4.13h-18.6v-.52Z"/>
  <path class="cls-1" d="M1618.72,354.95v-178.77l-32.55,5.17v3.62c15.5,0,18.6,1.03,18.6,11.88v158.62h-18.6v4.13h51.15v-4.13h-18.6v-.52Z"/>
  <path class="cls-1" d="M1552.58,354.95v-104.37l-32.55,5.17v3.62c15.5,0,18.6,1.03,18.6,11.88v84.22h-18.6v4.13h51.15v-4.13h-18.6v-.52Z"/>
  <path class="cls-1" d="M1473.02,178.77v3.62c14.46.52,21.18,2.07,17.56,12.92-3.61,10.33-60.45,143.12-60.45,143.12l-60.96-138.98c-5.69-14.98,0-16.02,18.08-17.05v-3.62h-59.42v3.62c17.57,1.03,19.12,2.58,24.8,18.6,6.2,16.02,69.24,158.1,69.24,158.1h5.16s51.67-114.18,62.52-144.15c11.37-29.97,12.92-31.52,31.52-32.55v-3.62h-48.57.52Z"/>
</svg>