<?xml version="1.0" encoding="UTF-8"?>
<svg id="Layer_1" xmlns="http://www.w3.org/2000/svg" version="1.1" viewBox="0 0 342.77 62.29">
  <!-- Generator: Adobe Illustrator 29.8.1, SVG Export Plug-In . SVG Version: 2.1.1 Build 2)  -->
  <defs>
    <style>
      .st0 {
        fill: #fff;
      }
    </style>
  </defs>
  <path class="st0" d="M50.16,60.23c7.02-.43,7.87-.5,7.87-6.39V8.73c0-5.89-.85-5.96-7.87-6.38v-1.21h20.93v1.21c-7.02.43-7.87.5-7.87,6.38v45.12c0,5.89.85,5.96,7.87,6.39v1.2h-20.93v-1.2Z"/>
  <path class="st0" d="M102.71,25.04s-.86,4.47-1.14,4.44c-1.32-.15-2.4-.25-3.05-.25-5.82,0-8.16,2.41-10.57,6.6v24.19l6.24.07v1.35h-17.1v-1.35l6.24-.07v-28.09c0-3.55-.99-3.76-6.24-3.9v-1.14l10.85-1.7v8.58c2.2-4.33,6.17-8.8,12.77-8.8.71,0,1.35,0,1.99.07Z"/>
  <path class="st0" d="M124.63,60.09v1.35h-17.1v-1.35l6.24-.07v-28.09c0-3.55-.99-3.76-6.24-3.9v-1.14l10.85-1.7v34.83l6.24.07Z"/>
  <path class="st0" d="M112.36,11.8c0-1.99,1.56-3.55,3.55-3.55s3.55,1.56,3.55,3.55-1.56,3.55-3.55,3.55-3.55-1.56-3.55-3.55Z"/>
  <path class="st0" d="M130.02,50.58h1.42c.71,6.45,5.89,10.36,11.21,10.36,4.68,0,7.95-2.91,7.95-6.6,0-4.47-3.62-6.6-6.95-8.09l-3.62-1.63c-6.1-2.76-9.08-6.03-9.08-10.64,0-5.11,4.82-9.15,11.14-9.15,4.54,0,6.6,1.91,8.09,1.91.71,0,1.28-.35,1.56-1.28h1.14v10h-1.42c-.92-6.45-4.97-9.29-9.44-9.29-3.9,0-7.02,2.27-7.02,6.1,0,3.33,1.77,5.96,7.38,8.16l1.21.5c6.74,2.62,11,5.39,11,11.35,0,6.39-6.24,10-12.13,10-4.68,0-7.94-2.62-9.51-2.62-1.13,0-1.63.71-1.84,1.63h-1.06v-10.71Z"/>
  <path class="st0" d="M179.62,60.23c7.02-.43,7.87-.5,7.87-6.39V8.73c0-5.89-.85-5.96-7.87-6.38v-1.21h20.93v1.21c-7.02.43-7.88.5-7.88,6.38v45.12c0,4.9.5,6.17,5.96,6.17h5.25c20.64,0,18.3-.64,21.63-16.46h1.28l-2.41,17.88h-44.76v-1.2Z"/>
  <path class="st0" d="M248.34,42.28l5.82-1.35v-4.68c0-6.24-1.84-9.93-7.16-9.93-5.04,0-7.87,3.26-10.71,6.6-1.63,0-2.84-1.21-2.84-2.63,0-1.28.71-2.34,2.55-3.26,2.48-1.35,6.88-2.2,11.07-2.2,8.3,0,11.85,3.48,11.78,9.44l-.21,19.93c-.07,3.34.85,4.83,4.4,4.54l-.71,2.77c-5.32.99-7.38-1.63-7.94-4.61-5.11,3.55-8.94,5.39-13.27,5.39-5.39,0-9.36-3.26-9.36-7.66,0-5.89,6.67-10.07,16.6-12.34ZM243.24,59.95c3.97,0,7.02-2.06,10.92-4.54v-12.91l-4.26.99c-7.38,1.7-12.98,4.61-12.98,10.64,0,2.84,1.77,5.82,6.31,5.82Z"/>
  <path class="st0" d="M307.98,60.09v1.35h-17.1v-1.35l6.24-.07v-20.5c0-5.46-.5-7.8-1.35-9.29-.85-1.56-2.62-2.98-5.6-2.98-3.9,0-7.1,2.13-11.14,8.51v24.26l6.24.07v1.35h-17.1v-1.35l6.24-.07v-28.09c0-3.55-.99-3.76-6.24-3.9v-1.14l10.85-1.7v8.23c3.55-5.39,7.09-8.58,12.98-8.58,3.33,0,5.96,1.06,7.52,3.05,1.42,1.92,2.2,3.9,2.2,10.14v21.99l6.24.07Z"/>
  <path class="st0" d="M341.08,52.85l1.2.71c-3.19,5.54-8.37,8.73-14.26,8.73-10.92,0-17.81-8.94-17.81-18.73,0-11.07,7.45-18.73,17.45-18.73,7.95,0,14.69,4.75,15.11,14.26h-27.03c-.07.85-.14,1.77-.14,2.63,0,10.78,5.75,18.37,14.12,18.37,4.75,0,8.23-2.41,11.35-7.24ZM315.96,37.67h18.44c2.06,0,2.91-1.06,2.91-2.91,0-4.61-3.62-8.51-9.79-8.51-6.95,0-10.57,5.11-11.56,11.42Z"/>
  <path class="st0" d="M9.88,8.66C6.53,12.95,3.24,15.33,0,15.72l.99-3.88c2.93,0,10.37-5.29,13.72-11.84h.35v53.84c0,5.89.85,5.96,7.66,6.39v1.2H2.22v-1.2c6.81-.43,7.66-.5,7.66-6.39V8.66Z"/>
</svg>