<?xml version="1.0" encoding="UTF-8"?>
<svg id="Layer_1" data-name="Layer 1" xmlns="http://www.w3.org/2000/svg" xmlns:xlink="http://www.w3.org/1999/xlink" viewBox="0 0 1330.01 1494.49">
  <defs>
    <style>
      .cls-1 {
        fill: none;
      }

      .cls-2 {
        fill: #4c2f48;
      }

      .cls-3 {
        clip-path: url(#clippath);
      }
    </style>
    <clipPath id="clippath">
      <rect class="cls-1" x="0" width="1330" height="1494"/>
    </clipPath>
  </defs>
  <g class="cls-3">
    <g>
      <path class="cls-2" d="M373.77,1252.28l-69.41,123.29c98.05,70.38,225.71,118.92,360.65,118.92s263.09-48.54,360.65-118.92l-69.41-123.29c-90.77,63.1-185.91,94.16-291.24,94.16s-207.27-33.49-291.24-94.16Z"/>
      <path class="cls-2" d="M0,630.02c-.97,260.65,99.02,533.92,314.54,698.95l59.22-76.2c88.83,50.48,190.28,69.41,291.24,69.41s202.41-18.93,291.24-69.41l59.22,76.2c216-164.54,315.51-437.81,314.54-698.95-.49-160.66-41.74-319.87-107.76-442.67l35.44-26.21c-24.27-48.05-75.73-121.83-112.62-161.15-16.5,12.13-192.7,140.27-192.7,140.27,7.28,7.77,192.22,169.4,192.22,489.75s-197.56,610.61-480.06,611.58c-282.02-.97-480.06-295.11-480.06-611.58s185.91-481.98,193.19-489.75c0,0-176.2-128.14-192.7-140.27-36.89,39.32-88.34,113.09-113.1,161.15l35.43,26.21C41.75,310.16.98,469.36,0,630.02ZM1225.16,630.02c0-221.33-70.87-393.16-70.87-393.16,0,0,95.63,160.66,95.63,393.16,0,338.31-188.34,527.13-188.34,527.13,80.58-101.45,163.1-305.79,163.1-527.13h.48ZM267.95,1157.15s-188.34-188.82-188.34-527.13,95.62-393.16,95.62-393.16c0,0-70.87,171.82-70.87,393.16s82.52,425.68,163.09,527.13h.49Z"/>
      <path class="cls-2" d="M624.72,393.64c-18.45-20.39-54.85-29.61-69.41-33.49,39.32-13.11,75.72,12.13,92.71,44.17-11.16-36.4-39.32-68.92-75.72-82.03-42.72-15.53-86.4.97-81.06,27.67,4.85,25.24-18.93,25.72-9.22,44.65,15.53,31.06,66.99,1.46,95.62-2.43,13.59-1.94,27.18-4.37,47.08,1.46Z"/>
      <path class="cls-2" d="M839.27,349.96c5.34-26.7-38.35-43.2-81.06-27.67-36.41,13.11-65.04,45.63-75.72,82.03,17.47-32.04,53.39-57.27,92.71-44.17-14.56,3.88-50.97,13.1-69.41,33.49,20.39-5.82,33.49-3.4,47.08-1.46,28.64,3.88,79.61,33.49,95.62,2.43,9.71-19.42-14.08-19.9-9.22-44.65Z"/>
      <path class="cls-2" d="M689.76,248.51c54.85.97,50,47.08,40.77,66.5,20.87-22.81,16.5-43.2,13.59-55.33-9.71-38.83-37.38-77.18-80.09-77.18s-18.45,2.43-27.18,6.79c9.22-1.94,56.31-4.37,53.39,58.73"/>
      <path class="cls-2" d="M610.16,324.23c32.52,24.27,42.72,60.67,50,85.43,3.88-74.75-4.37-88.83-26.7-129.6,44.17,20.39,43.69,59.7,35.92,114.55,9.71-24.75,19.9-36.89,33.49-55.33,38.35-51.45,11.65-79.6-24.27-84.46,0-6.31,1.46-34.46-22.33-48.05-24.76-14.08-58.73-5.82-51.94,35.92-22.33,4.85-35.43,50.96,5.82,81.06"/>
      <path class="cls-2" d="M770.34,407.23c-54.85-19.42-82.52,24.27-105.33,23.3-22.81.49-50.48-43.2-105.33-23.3,34.46,9.71,51.94,39.8,63.59,65.53,12.14,0,36.4,9.22,46.6,16.5h-66.5v16.99c0,7.77,6.31,13.59,13.59,13.59,29.12,0,41.26,4.85,52.42,12.14h-39.32c-5.82,0-10.19,4.85-10.19,10.19s4.37,10.19,10.19,10.19h5.34v232.5c17.47,4.37,34.46,14.56,34.46,14.56h-33.98c-8.74,0-15.53,6.79-15.53,15.53s6.8,15.53,15.05,15.53v31.55c0,5.83-4.37,10.19-10.19,10.19s-10.19-4.37-10.19-10.19v-10.19h-86.4v61.64c.97.97,8.25,11.16,8.25,11.16.49,0,10.19-11.16,29.12-11.16s36.41,11.65,36.41,28.64-17.47,28.64-36.41,28.64-28.64-11.16-29.12-11.16c0,0-7.77,10.68-8.25,11.16v61.64h86.4v-10.19c0-5.82,4.37-10.19,10.19-10.19s10.19,4.85,10.19,10.19v25.73c0,16.01,13.11,29.6,29.61,29.6s29.61-13.59,29.61-29.6v-216.97c8.25,0,15.53-7.28,15.53-15.53s-6.8-15.53-15.53-15.53v-246.57h5.34c5.83,0,10.19-4.37,10.19-10.19s-4.37-10.19-10.19-10.19h-5.34v-12.13h18.45c7.77,0,13.59-6.31,13.59-13.59v-16.99h-26.21c8.74-23.78,27.18-70.38,69.9-82.03v-.97ZM649.96,765.93v-194.15s15.53,28.15,15.53,97.08-15.53,97.08-15.53,97.08ZM649.96,1052.3v-200.46s15.53,51.45,15.53,99.99-15.53,99.99-15.53,99.99v.48Z"/>
    </g>
  </g>
</svg>