<?xml version="1.0" encoding="UTF-8"?>
<svg id="Layer_1" xmlns="http://www.w3.org/2000/svg" version="1.1" viewBox="0 0 342.77 119.34">
  <!-- Generator: Adobe Illustrator 29.8.1, SVG Export Plug-In . SVG Version: 2.1.1 Build 2)  -->
  <defs>
    <style>
      .st0 {
        fill: #fff;
      }
    </style>
  </defs>
  <g>
    <path class="st0" d="M83.53,119.16v-9.26h3.35c1.87,0,3.23.62,3.23,2.42,0,1.12-.78,1.99-1.98,2.11,1.45.04,2.27.75,2.27,2.08,0,1.87-1.24,2.64-3.25,2.64h-3.63ZM88.82,112.4c0-1.03-.71-1.45-1.89-1.45h-2.15v3h2.15c1.17-.03,1.89-.44,1.89-1.55M89.11,116.54c0-1.08-.65-1.57-2.01-1.57h-2.33v3.14h2.33c1.17,0,2.01-.33,2.01-1.58"/>
    <polygon class="st0" points="94.13 109.91 94.13 119.17 100.4 119.17 100.4 118.12 95.37 118.12 95.37 114.97 99.56 114.97 99.56 113.92 95.37 113.92 95.37 110.97 100.32 110.97 100.32 109.91 94.13 109.91"/>
    <polygon class="st0" points="103.92 109.91 103.92 119.17 109.59 119.17 109.59 118.1 105.17 118.1 105.17 109.91 103.92 109.91"/>
    <polygon class="st0" points="112.85 109.91 112.85 119.17 118.52 119.17 118.52 118.1 114.09 118.1 114.09 109.91 112.85 109.91"/>
    <polygon class="st0" points="121.78 109.91 121.78 119.17 128.06 119.17 128.06 118.12 123.03 118.12 123.03 114.97 127.22 114.97 127.22 113.92 123.03 113.92 123.03 110.97 127.97 110.97 127.97 109.91 121.78 109.91"/>
    <polygon class="st0" points="143.82 109.91 141.2 117.69 138.54 109.91 136.63 109.91 136.63 119.17 137.87 119.17 137.87 111.27 140.41 119.17 141.8 119.17 144.49 111.24 144.49 119.17 145.73 119.17 145.73 109.91 143.82 109.91"/>
    <polygon class="st0" points="149.9 109.91 149.9 119.17 156.17 119.17 156.17 118.12 151.14 118.12 151.14 114.97 155.33 114.97 155.33 113.92 151.14 113.92 151.14 110.97 156.09 110.97 156.09 109.91 149.9 109.91"/>
    <path class="st0" d="M163.38,111.28l1.62,4.4h-3.26l1.64-4.4ZM162.7,109.91l-3.54,9.26h1.3l.9-2.42h4.04l.9,2.42h1.36l-3.54-9.26h-1.42Z"/>
    <path class="st0" d="M170.87,119.16v-9.26h3.06c2.49,0,4.28,1.31,4.28,4.61s-1.79,4.65-4.28,4.65h-3.06ZM173.93,118.12c1.8,0,2.98-1.02,2.98-3.6s-1.18-3.56-2.98-3.56h-1.82v7.16h1.82Z"/>
    <polygon class="st0" points="181.94 109.91 181.94 119.17 188.22 119.17 188.22 118.12 183.19 118.12 183.19 114.97 187.38 114.97 187.38 113.92 183.19 113.92 183.19 110.97 188.13 110.97 188.13 109.91 181.94 109.91"/>
    <polygon class="st0" points="202.74 109.91 199.97 117.79 197.19 109.91 195.83 109.91 199.23 119.17 200.65 119.17 204.04 109.91 202.74 109.91"/>
    <rect class="st0" x="207.31" y="109.91" width="1.24" height="9.26"/>
    <polygon class="st0" points="212.7 109.91 212.7 119.17 218.37 119.17 218.37 118.1 213.94 118.1 213.94 109.91 212.7 109.91"/>
    <polygon class="st0" points="221.63 109.91 221.63 119.17 227.3 119.17 227.3 118.1 222.87 118.1 222.87 109.91 221.63 109.91"/>
    <path class="st0" d="M234.25,111.28l1.62,4.4h-3.26l1.64-4.4ZM233.57,109.91l-3.54,9.26h1.3l.9-2.42h4.04l.9,2.42h1.36l-3.54-9.26h-1.42Z"/>
    <path class="st0" d="M245.09,109.73c2.21,0,3.73,1.34,3.85,3.17l-1.2.15c-.12-1.09-.96-2.24-2.67-2.24-1.45,0-2.85,1.08-2.85,3.72,0,2.46,1.2,3.75,3.03,3.75.99,0,1.95-.41,2.42-1.11v-1.76h-3.11v-1.05h4.35v4.8h-.78l-.25-1.68c-.38,1.09-1.49,1.86-2.91,1.86-2.24,0-4.04-1.6-4.04-4.83s1.99-4.78,4.16-4.78"/>
    <polygon class="st0" points="252.96 109.91 252.96 119.17 259.24 119.17 259.24 118.12 254.2 118.12 254.2 114.97 258.4 114.97 258.4 113.92 254.2 113.92 254.2 110.97 259.15 110.97 259.15 109.91 252.96 109.91"/>
    <polygon class="st0" points="95.73 98.51 95.73 90.31 92.79 90.31 92.79 89.24 99.92 89.24 99.92 90.31 96.98 90.31 96.98 98.51 95.73 98.51"/>
    <polygon class="st0" points="108.92 98.51 108.92 94.31 104.47 94.31 104.47 98.51 103.22 98.51 103.22 89.24 104.47 89.24 104.47 93.26 108.92 93.26 108.92 89.24 110.17 89.24 110.17 98.51 108.92 98.51"/>
    <polygon class="st0" points="114.35 98.51 114.35 89.24 120.54 89.24 120.54 90.31 115.59 90.31 115.59 93.26 119.79 93.26 119.79 94.31 115.59 94.31 115.59 97.46 120.63 97.46 120.63 98.51 114.35 98.51"/>
    <path class="st0" d="M134.63,91.83c0-1.26-1.08-1.52-2.07-1.52h-2.1v3.21h2.1c.99,0,2.07-.41,2.07-1.68M129.22,98.51v-9.27h3.52c1.74,0,3.19.64,3.19,2.57,0,1.15-.93,2.22-2.63,2.29,2.97.1,2.07,3.21,3.09,4.41h-1.33c-.87-.9-.12-3.98-2.71-3.98h-1.89v3.98h-1.24Z"/>
    <polygon class="st0" points="139.88 98.51 139.88 89.24 146.08 89.24 146.08 90.31 141.12 90.31 141.12 93.26 145.32 93.26 145.32 94.31 141.12 94.31 141.12 97.46 146.16 97.46 146.16 98.51 139.88 98.51"/>
    <path class="st0" d="M149.15,95.66l1.2-.15c.07.81.84,2.1,2.57,2.1,1.36,0,2.14-.75,2.14-1.6s-.58-1.23-1.94-1.54l-1.4-.33c-1.27-.3-2.32-.97-2.32-2.45s1.14-2.63,3.25-2.63,3.37,1.23,3.49,2.68l-1.2.15c-.13-.99-.99-1.75-2.29-1.75s-2,.68-2,1.54c0,.8.58,1.15,1.61,1.39l1.38.31c1.79.4,2.68,1.11,2.68,2.53,0,1.67-1.4,2.78-3.4,2.78-2.25,0-3.67-1.39-3.77-3.03"/>
    <rect class="st0" x="160" y="89.24" width="1.24" height="9.27"/>
    <path class="st0" d="M168.46,97.46c1.8,0,2.99-1.02,2.99-3.61s-1.18-3.56-2.99-3.56h-1.82v7.17h1.82ZM165.39,98.51v-9.27h3.06c2.5,0,4.29,1.32,4.29,4.61s-1.79,4.66-4.29,4.66h-3.06Z"/>
    <polygon class="st0" points="176.49 98.51 176.49 89.24 182.68 89.24 182.68 90.31 177.73 90.31 177.73 93.26 181.93 93.26 181.93 94.31 177.73 94.31 177.73 97.46 182.77 97.46 182.77 98.51 176.49 98.51"/>
    <polygon class="st0" points="192.3 98.51 187.54 90.94 187.54 98.51 186.3 98.51 186.3 89.24 187.86 89.24 192.46 96.75 192.46 89.24 193.7 89.24 193.7 98.51 192.3 98.51"/>
    <path class="st0" d="M201.61,97.61c1.71,0,2.56-1.15,2.68-2.25l1.2.15c-.12,1.83-1.64,3.18-3.86,3.18s-4.17-1.49-4.17-4.81,2-4.82,4.17-4.82,3.74,1.35,3.86,3.18l-1.2.15c-.12-1.09-.96-2.25-2.68-2.25-1.45,0-2.85,1.08-2.85,3.73s1.4,3.74,2.85,3.74"/>
    <polygon class="st0" points="209.2 98.51 209.2 89.24 215.39 89.24 215.39 90.31 210.44 90.31 210.44 93.26 214.64 93.26 214.64 94.31 210.44 94.31 210.44 97.46 215.48 97.46 215.48 98.51 209.2 98.51"/>
    <path class="st0" d="M218.47,95.66l1.2-.15c.07.81.84,2.1,2.57,2.1,1.36,0,2.14-.75,2.14-1.6s-.58-1.23-1.94-1.54l-1.4-.33c-1.27-.3-2.32-.97-2.32-2.45s1.14-2.63,3.25-2.63,3.37,1.23,3.49,2.68l-1.2.15c-.13-.99-.99-1.75-2.29-1.75s-2,.68-2,1.54c0,.8.58,1.15,1.61,1.39l1.38.31c1.79.4,2.68,1.11,2.68,2.53,0,1.67-1.4,2.78-3.4,2.78-2.25,0-3.67-1.39-3.77-3.03"/>
    <path class="st0" d="M235.64,95.02h3.27l-1.63-4.41-1.64,4.41ZM239.3,96.09h-4.05l-.9,2.43h-1.3l3.55-9.27h1.42l3.55,9.27h-1.36l-.9-2.43Z"/>
    <polygon class="st0" points="245.79 98.51 245.79 90.31 242.85 90.31 242.85 89.24 249.98 89.24 249.98 90.31 247.04 90.31 247.04 98.51 245.79 98.51"/>
  </g>
  <g>
    <path class="st0" d="M50.16,60.23c7.02-.43,7.87-.5,7.87-6.39V8.72c0-5.89-.85-5.96-7.87-6.38v-1.21h20.93v1.21c-7.02.43-7.87.5-7.87,6.38v45.12c0,5.89.85,5.96,7.87,6.39v1.2h-20.93v-1.2Z"/>
    <path class="st0" d="M102.72,25.04s-.86,4.47-1.14,4.44c-1.32-.15-2.4-.25-3.05-.25-5.82,0-8.16,2.41-10.57,6.6v24.19l6.24.07v1.35h-17.1v-1.35l6.24-.07v-28.09c0-3.55-.99-3.76-6.24-3.9v-1.14l10.85-1.7v8.58c2.2-4.33,6.17-8.8,12.77-8.8.71,0,1.35,0,1.99.07Z"/>
    <path class="st0" d="M124.63,60.09v1.35h-17.1v-1.35l6.24-.07v-28.09c0-3.55-.99-3.76-6.24-3.9v-1.14l10.85-1.7v34.83l6.24.07Z"/>
    <path class="st0" d="M112.36,11.8c0-1.99,1.56-3.55,3.55-3.55s3.55,1.56,3.55,3.55-1.56,3.55-3.55,3.55-3.55-1.56-3.55-3.55Z"/>
    <path class="st0" d="M130.02,50.58h1.42c.71,6.45,5.89,10.36,11.21,10.36,4.68,0,7.95-2.91,7.95-6.6,0-4.47-3.62-6.6-6.95-8.09l-3.62-1.63c-6.1-2.76-9.08-6.03-9.08-10.64,0-5.11,4.82-9.15,11.14-9.15,4.54,0,6.6,1.91,8.09,1.91.71,0,1.28-.35,1.56-1.28h1.14v10h-1.42c-.92-6.45-4.97-9.29-9.43-9.29-3.9,0-7.02,2.27-7.02,6.1,0,3.33,1.77,5.96,7.38,8.16l1.21.5c6.74,2.62,11,5.39,11,11.35,0,6.39-6.24,10-12.13,10-4.68,0-7.94-2.62-9.51-2.62-1.13,0-1.63.71-1.84,1.63h-1.06v-10.71Z"/>
    <path class="st0" d="M179.62,60.23c7.02-.43,7.87-.5,7.87-6.39V8.72c0-5.89-.85-5.96-7.87-6.38v-1.21h20.93v1.21c-7.02.43-7.88.5-7.88,6.38v45.12c0,4.9.5,6.17,5.96,6.17h5.25c20.64,0,18.3-.64,21.63-16.46h1.28l-2.41,17.88h-44.76v-1.2Z"/>
    <path class="st0" d="M248.34,42.28l5.82-1.35v-4.68c0-6.24-1.84-9.93-7.16-9.93-5.04,0-7.87,3.26-10.71,6.6-1.63,0-2.84-1.21-2.84-2.63,0-1.28.71-2.34,2.55-3.26,2.48-1.35,6.88-2.2,11.07-2.2,8.3,0,11.85,3.48,11.78,9.43l-.21,19.93c-.07,3.34.85,4.83,4.4,4.54l-.71,2.77c-5.32.99-7.38-1.63-7.94-4.61-5.11,3.55-8.94,5.39-13.27,5.39-5.39,0-9.36-3.26-9.36-7.66,0-5.89,6.67-10.07,16.6-12.34ZM243.23,59.94c3.97,0,7.02-2.06,10.92-4.54v-12.91l-4.26.99c-7.38,1.7-12.98,4.61-12.98,10.64,0,2.84,1.77,5.82,6.31,5.82Z"/>
    <path class="st0" d="M307.98,60.09v1.35h-17.1v-1.35l6.24-.07v-20.5c0-5.46-.5-7.8-1.35-9.29-.85-1.56-2.62-2.98-5.6-2.98-3.9,0-7.09,2.13-11.14,8.51v24.26l6.24.07v1.35h-17.1v-1.35l6.24-.07v-28.09c0-3.55-.99-3.76-6.24-3.9v-1.14l10.85-1.7v8.23c3.55-5.39,7.09-8.58,12.98-8.58,3.33,0,5.96,1.06,7.52,3.05,1.42,1.92,2.2,3.9,2.2,10.14v21.99l6.24.07Z"/>
    <path class="st0" d="M341.07,52.85l1.2.71c-3.19,5.54-8.37,8.73-14.26,8.73-10.92,0-17.81-8.94-17.81-18.73,0-11.07,7.45-18.73,17.45-18.73,7.95,0,14.68,4.75,15.11,14.26h-27.03c-.07.85-.14,1.77-.14,2.63,0,10.78,5.75,18.37,14.12,18.37,4.75,0,8.23-2.41,11.35-7.24ZM315.96,37.67h18.44c2.06,0,2.91-1.06,2.91-2.91,0-4.61-3.62-8.51-9.79-8.51-6.95,0-10.57,5.11-11.56,11.42Z"/>
    <path class="st0" d="M9.89,8.66C6.54,12.95,3.24,15.33,0,15.72l.99-3.88C3.92,11.84,11.36,6.55,14.71,0h.35v53.84c0,5.89.85,5.96,7.66,6.39v1.2H2.22v-1.2c6.81-.43,7.66-.5,7.66-6.39V8.66Z"/>
  </g>
</svg>