<?xml version="1.0" encoding="UTF-8"?>
<svg id="Layer_1" xmlns="http://www.w3.org/2000/svg" version="1.1" viewBox="0 0 342.8 119.3">
  <!-- Generator: Adobe Illustrator 29.8.1, SVG Export Plug-In . SVG Version: 2.1.1 Build 2)  -->
  <defs>
    <style>
      .st0 {
        fill: #fff9f2;
      }
    </style>
  </defs>
  <g>
    <path class="st0" d="M83.5,119.2v-9.3h3.3c1.9,0,3.2.6,3.2,2.4s-.8,2-2,2.1c1.4,0,2.3.8,2.3,2.1s-1.2,2.6-3.2,2.6h-3.6,0ZM88.8,112.4c0-1-.7-1.4-1.9-1.4h-2.2v3h2.2c1.2,0,1.9-.4,1.9-1.6M89.1,116.5c0-1.1-.7-1.6-2-1.6h-2.3v3.1h2.3c1.2,0,2-.3,2-1.6"/>
    <polygon class="st0" points="94.1 109.9 94.1 119.2 100.4 119.2 100.4 118.1 95.4 118.1 95.4 115 99.6 115 99.6 113.9 95.4 113.9 95.4 111 100.3 111 100.3 109.9 94.1 109.9"/>
    <polygon class="st0" points="103.9 109.9 103.9 119.2 109.6 119.2 109.6 118.1 105.2 118.1 105.2 109.9 103.9 109.9"/>
    <polygon class="st0" points="112.8 109.9 112.8 119.2 118.5 119.2 118.5 118.1 114.1 118.1 114.1 109.9 112.8 109.9"/>
    <polygon class="st0" points="121.8 109.9 121.8 119.2 128.1 119.2 128.1 118.1 123 118.1 123 115 127.2 115 127.2 113.9 123 113.9 123 111 128 111 128 109.9 121.8 109.9"/>
    <polygon class="st0" points="143.8 109.9 141.2 117.7 138.5 109.9 136.6 109.9 136.6 119.2 137.9 119.2 137.9 111.3 140.4 119.2 141.8 119.2 144.5 111.2 144.5 119.2 145.7 119.2 145.7 109.9 143.8 109.9"/>
    <polygon class="st0" points="149.9 109.9 149.9 119.2 156.2 119.2 156.2 118.1 151.1 118.1 151.1 115 155.3 115 155.3 113.9 151.1 113.9 151.1 111 156.1 111 156.1 109.9 149.9 109.9"/>
    <path class="st0" d="M163.4,111.3l1.6,4.4h-3.3l1.6-4.4ZM162.7,109.9l-3.5,9.3h1.3l.9-2.4h4l.9,2.4h1.4l-3.5-9.3h-1.4Z"/>
    <path class="st0" d="M170.9,119.2v-9.3h3.1c2.5,0,4.3,1.3,4.3,4.6s-1.8,4.7-4.3,4.7h-3.1ZM173.9,118.1c1.8,0,3-1,3-3.6s-1.2-3.6-3-3.6h-1.8v7.2s1.8,0,1.8,0Z"/>
    <polygon class="st0" points="181.9 109.9 181.9 119.2 188.2 119.2 188.2 118.1 183.2 118.1 183.2 115 187.4 115 187.4 113.9 183.2 113.9 183.2 111 188.1 111 188.1 109.9 181.9 109.9"/>
    <polygon class="st0" points="202.7 109.9 200 117.8 197.2 109.9 195.8 109.9 199.2 119.2 200.6 119.2 204 109.9 202.7 109.9"/>
    <rect class="st0" x="207.3" y="109.9" width="1.2" height="9.3"/>
    <polygon class="st0" points="212.7 109.9 212.7 119.2 218.4 119.2 218.4 118.1 213.9 118.1 213.9 109.9 212.7 109.9"/>
    <polygon class="st0" points="221.6 109.9 221.6 119.2 227.3 119.2 227.3 118.1 222.9 118.1 222.9 109.9 221.6 109.9"/>
    <path class="st0" d="M234.2,111.3l1.6,4.4h-3.3l1.6-4.4ZM233.6,109.9l-3.5,9.3h1.3l.9-2.4h4l.9,2.4h1.4l-3.5-9.3h-1.4Z"/>
    <path class="st0" d="M245.1,109.7c2.2,0,3.7,1.3,3.9,3.2l-1.2.2c-.1-1.1-1-2.2-2.7-2.2s-2.9,1.1-2.9,3.7,1.2,3.8,3,3.8,1.9-.4,2.4-1.1v-1.8h-3.1v-1.1h4.4v4.8h-.8l-.2-1.7c-.4,1.1-1.5,1.9-2.9,1.9-2.2,0-4-1.6-4-4.8s2-4.8,4.2-4.8"/>
    <polygon class="st0" points="253 109.9 253 119.2 259.2 119.2 259.2 118.1 254.2 118.1 254.2 115 258.4 115 258.4 113.9 254.2 113.9 254.2 111 259.1 111 259.1 109.9 253 109.9"/>
    <polygon class="st0" points="95.7 98.5 95.7 90.3 92.8 90.3 92.8 89.2 99.9 89.2 99.9 90.3 97 90.3 97 98.5 95.7 98.5"/>
    <polygon class="st0" points="108.9 98.5 108.9 94.3 104.5 94.3 104.5 98.5 103.2 98.5 103.2 89.2 104.5 89.2 104.5 93.3 108.9 93.3 108.9 89.2 110.2 89.2 110.2 98.5 108.9 98.5"/>
    <polygon class="st0" points="114.3 98.5 114.3 89.2 120.5 89.2 120.5 90.3 115.6 90.3 115.6 93.3 119.8 93.3 119.8 94.3 115.6 94.3 115.6 97.5 120.6 97.5 120.6 98.5 114.3 98.5"/>
    <path class="st0" d="M134.6,91.8c0-1.3-1.1-1.5-2.1-1.5h-2.1v3.2h2.1c1,0,2.1-.4,2.1-1.7M129.2,98.5v-9.3h3.5c1.7,0,3.2.6,3.2,2.6s-.9,2.2-2.6,2.3c3,0,2.1,3.2,3.1,4.4h-1.3c-.9-.9-.1-4-2.7-4h-1.9v4h-1.2,0Z"/>
    <polygon class="st0" points="139.9 98.5 139.9 89.2 146.1 89.2 146.1 90.3 141.1 90.3 141.1 93.3 145.3 93.3 145.3 94.3 141.1 94.3 141.1 97.5 146.2 97.5 146.2 98.5 139.9 98.5"/>
    <path class="st0" d="M149.1,95.7l1.2-.2c0,.8.8,2.1,2.6,2.1s2.1-.8,2.1-1.6-.6-1.2-1.9-1.5l-1.4-.3c-1.3-.3-2.3-1-2.3-2.4s1.1-2.6,3.2-2.6,3.4,1.2,3.5,2.7l-1.2.2c-.1-1-1-1.8-2.3-1.8s-2,.7-2,1.5.6,1.2,1.6,1.4l1.4.3c1.8.4,2.7,1.1,2.7,2.5s-1.4,2.8-3.4,2.8-3.7-1.4-3.8-3"/>
    <rect class="st0" x="160" y="89.2" width="1.2" height="9.3"/>
    <path class="st0" d="M168.5,97.5c1.8,0,3-1,3-3.6s-1.2-3.6-3-3.6h-1.8v7.2h1.8ZM165.4,98.5v-9.3h3.1c2.5,0,4.3,1.3,4.3,4.6s-1.8,4.7-4.3,4.7c0,0-3.1,0-3.1,0Z"/>
    <polygon class="st0" points="176.5 98.5 176.5 89.2 182.7 89.2 182.7 90.3 177.7 90.3 177.7 93.3 181.9 93.3 181.9 94.3 177.7 94.3 177.7 97.5 182.8 97.5 182.8 98.5 176.5 98.5"/>
    <polygon class="st0" points="192.3 98.5 187.5 90.9 187.5 98.5 186.3 98.5 186.3 89.2 187.9 89.2 192.5 96.8 192.5 89.2 193.7 89.2 193.7 98.5 192.3 98.5"/>
    <path class="st0" d="M201.6,97.6c1.7,0,2.6-1.2,2.7-2.2l1.2.2c-.1,1.8-1.6,3.2-3.9,3.2s-4.2-1.5-4.2-4.8,2-4.8,4.2-4.8,3.7,1.3,3.9,3.2l-1.2.2c-.1-1.1-1-2.2-2.7-2.2s-2.9,1.1-2.9,3.7,1.4,3.7,2.9,3.7"/>
    <polygon class="st0" points="209.2 98.5 209.2 89.2 215.4 89.2 215.4 90.3 210.4 90.3 210.4 93.3 214.6 93.3 214.6 94.3 210.4 94.3 210.4 97.5 215.5 97.5 215.5 98.5 209.2 98.5"/>
    <path class="st0" d="M218.5,95.7l1.2-.2c0,.8.8,2.1,2.6,2.1s2.1-.8,2.1-1.6-.6-1.2-1.9-1.5l-1.4-.3c-1.3-.3-2.3-1-2.3-2.4s1.1-2.6,3.2-2.6,3.4,1.2,3.5,2.7l-1.2.2c-.1-1-1-1.8-2.3-1.8s-2,.7-2,1.5.6,1.2,1.6,1.4l1.4.3c1.8.4,2.7,1.1,2.7,2.5s-1.4,2.8-3.4,2.8-3.7-1.4-3.8-3"/>
    <path class="st0" d="M235.6,95h3.3l-1.6-4.4s-1.6,4.4-1.6,4.4ZM239.3,96.1h-4.1l-.9,2.4h-1.3l3.6-9.3h1.4l3.6,9.3h-1.4l-.9-2.4h0Z"/>
    <polygon class="st0" points="245.8 98.5 245.8 90.3 242.9 90.3 242.9 89.2 250 89.2 250 90.3 247 90.3 247 98.5 245.8 98.5"/>
  </g>
  <g>
    <path class="st0" d="M50.2,60.2c7-.4,7.9-.5,7.9-6.4V8.7c0-5.9-.8-6-7.9-6.4v-1.2h20.9v1.2c-7,.4-7.9.5-7.9,6.4v45.1c0,5.9.9,6,7.9,6.4v1.2h-20.9s0-1.2,0-1.2Z"/>
    <path class="st0" d="M102.7,25s-.9,4.5-1.1,4.4c-1.3-.1-2.4-.2-3.1-.2-5.8,0-8.2,2.4-10.6,6.6v24.2h6.2v1.4h-17.1v-1.3h6.2v-28.2c0-3.5-1-3.8-6.2-3.9v-1.1l10.8-1.7v8.6c2.2-4.3,6.2-8.8,12.8-8.8s1.3,0,2,0h0Z"/>
    <path class="st0" d="M124.6,60.1v1.3h-17.1v-1.3h6.2v-28.2c0-3.5-1-3.8-6.2-3.9v-1.1l10.8-1.7v34.8h6.2c0,0,0,0,0,0Z"/>
    <path class="st0" d="M112.4,11.8c0-2,1.6-3.6,3.6-3.6s3.6,1.6,3.6,3.6-1.6,3.6-3.6,3.6-3.6-1.6-3.6-3.6Z"/>
    <path class="st0" d="M130,50.6h1.4c.7,6.5,5.9,10.4,11.2,10.4s7.9-2.9,7.9-6.6-3.6-6.6-6.9-8.1l-3.6-1.6c-6.1-2.8-9.1-6-9.1-10.6s4.8-9.1,11.1-9.1,6.6,1.9,8.1,1.9,1.3-.4,1.6-1.3h1.1v10h-1.4c-.9-6.5-5-9.3-9.4-9.3s-7,2.3-7,6.1,1.8,6,7.4,8.2l1.2.5c6.7,2.6,11,5.4,11,11.3s-6.2,10-12.1,10-7.9-2.6-9.5-2.6-1.6.7-1.8,1.6h-1.1v-10.7h0Z"/>
    <path class="st0" d="M179.6,60.2c7-.4,7.9-.5,7.9-6.4V8.7c0-5.9-.9-6-7.9-6.4v-1.2h20.9v1.2c-7,.4-7.9.5-7.9,6.4v45.1c0,4.9.5,6.2,6,6.2h5.2c20.6,0,18.3-.6,21.6-16.5h1.3l-2.4,17.9h-44.8v-1.2Z"/>
    <path class="st0" d="M248.3,42.3l5.8-1.3v-4.7c0-6.2-1.8-9.9-7.2-9.9s-7.9,3.3-10.7,6.6c-1.6,0-2.8-1.2-2.8-2.6s.7-2.3,2.6-3.3c2.5-1.4,6.9-2.2,11.1-2.2,8.3,0,11.9,3.5,11.8,9.4l-.2,19.9c0,3.3.9,4.8,4.4,4.5l-.7,2.8c-5.3,1-7.4-1.6-7.9-4.6-5.1,3.5-8.9,5.4-13.3,5.4s-9.4-3.3-9.4-7.7,6.7-10.1,16.6-12.3h0ZM243.2,59.9c4,0,7-2.1,10.9-4.5v-12.9l-4.3,1c-7.4,1.7-13,4.6-13,10.6s1.8,5.8,6.3,5.8h0Z"/>
    <path class="st0" d="M308,60.1v1.3h-17.1v-1.3h6.2v-20.6c0-5.5-.5-7.8-1.4-9.3-.9-1.6-2.6-3-5.6-3s-7.1,2.1-11.1,8.5v24.3h6.2v1.4h-17.1v-1.3h6.2v-28.2c0-3.5-1-3.8-6.2-3.9v-1.1l10.9-1.7v8.2c3.5-5.4,7.1-8.6,13-8.6s6,1.1,7.5,3c1.4,1.9,2.2,3.9,2.2,10.1v22h6.2c0,0,0,0,0,0Z"/>
    <path class="st0" d="M341.1,52.8l1.2.7c-3.2,5.5-8.4,8.7-14.3,8.7-10.9,0-17.8-8.9-17.8-18.7s7.5-18.7,17.5-18.7,14.7,4.8,15.1,14.3h-27c0,.8-.1,1.8-.1,2.6,0,10.8,5.8,18.4,14.1,18.4s8.2-2.4,11.4-7.2h0ZM316,37.7h18.4c2.1,0,2.9-1.1,2.9-2.9,0-4.6-3.6-8.5-9.8-8.5s-10.6,5.1-11.6,11.4Z"/>
    <path class="st0" d="M9.9,8.7C6.5,12.9,3.2,15.3,0,15.7l1-3.9c2.9,0,10.4-5.3,13.7-11.8h.4v53.8c0,5.9.9,6,7.7,6.4v1.2H2.2v-1.2c6.8-.4,7.7-.5,7.7-6.4V8.7h0Z"/>
  </g>
</svg>