<svg width="1330" height="1494" viewBox="0 0 1330 1494" fill="none" xmlns="http://www.w3.org/2000/svg">
<g clip-path="url(#clip0_646_9734)">
<path d="M373.759 1252.28L304.347 1375.57C402.398 1445.95 530.058 1494.49 665 1494.49C799.942 1494.49 928.088 1445.95 1025.65 1375.57L956.241 1252.28C865.471 1315.38 770.332 1346.44 665 1346.44C560.153 1346.44 457.734 1312.95 373.759 1252.28Z" fill="#FBF1E6"/>
<path d="M0.000163427 630.023C-0.970639 890.673 99.0221 1163.94 314.54 1328.97L373.759 1252.77C462.588 1303.25 564.037 1322.18 665 1322.18C765.964 1322.18 867.413 1303.25 956.241 1252.77L1015.46 1328.97C1231.46 1164.43 1330.97 891.158 1330 630.023C1329.51 469.363 1288.26 310.158 1222.24 187.357L1257.68 161.146C1233.41 113.094 1181.95 39.3158 1145.06 0C1128.56 12.1345 952.358 140.275 952.358 140.275C959.639 148.041 1144.58 309.673 1144.58 630.023C1144.58 950.374 947.018 1240.63 664.515 1241.6C382.497 1240.63 184.453 946.491 184.453 630.023C184.453 313.556 370.361 148.041 377.642 140.275C377.642 140.275 201.442 12.1345 184.938 0C148.048 39.3158 96.595 113.094 71.8396 161.146L107.274 187.357C41.7447 310.158 0.970966 469.363 0.000163427 630.023ZM1225.15 630.023C1225.15 408.69 1154.28 236.865 1154.28 236.865C1154.28 236.865 1249.91 397.526 1249.91 630.023C1249.91 968.333 1061.57 1157.15 1061.57 1157.15C1142.15 1055.7 1224.67 851.357 1224.67 630.023H1225.15ZM267.942 1157.15C267.942 1157.15 79.606 968.333 79.606 630.023C79.606 291.713 175.23 236.865 175.23 236.865C175.23 236.865 104.361 408.69 104.361 630.023C104.361 851.357 186.88 1055.7 267.456 1157.15H267.942Z" fill="#FBF1E6"/>
<path d="M624.711 393.643C606.266 373.257 569.861 364.035 555.299 360.152C594.616 347.047 631.022 372.287 648.011 404.322C636.846 367.918 608.693 335.398 572.288 322.292C529.573 306.76 485.887 323.263 491.226 349.959C496.08 375.199 472.295 375.684 482.003 394.614C497.536 425.678 548.989 396.07 577.627 392.187C591.219 390.246 604.81 387.819 624.711 393.643Z" fill="#FBF1E6"/>
<path d="M839.259 349.959C844.599 323.263 800.913 306.76 758.197 322.292C721.792 335.398 693.153 367.918 682.475 404.322C699.949 372.287 735.869 347.047 775.186 360.152C760.624 364.035 724.219 373.257 705.774 393.643C726.161 387.819 739.267 390.246 752.858 392.187C781.497 396.07 832.464 425.678 848.482 394.614C858.19 375.199 834.405 374.713 839.259 349.959Z" fill="#FBF1E6"/>
<path d="M689.755 248.515C744.606 249.485 739.752 295.597 730.529 315.012C751.401 292.199 747.033 271.813 744.12 259.678C734.412 220.848 706.745 182.503 664.029 182.503C621.314 182.503 645.584 184.93 636.847 189.298C646.069 187.357 693.153 184.93 690.241 248.029" fill="#FBF1E6"/>
<path d="M610.149 324.234C642.671 348.503 652.865 384.906 660.146 409.661C664.029 334.912 655.777 320.836 633.449 280.064C677.62 300.45 677.135 339.766 669.368 394.614C679.076 369.86 689.27 357.725 702.861 339.281C741.208 287.83 714.511 259.678 678.591 254.825C678.591 248.515 680.047 220.363 656.262 206.772C631.507 192.696 597.529 200.947 604.325 242.69C581.996 247.544 568.89 293.655 610.149 323.749" fill="#FBF1E6"/>
<path d="M770.331 407.234C715.481 387.819 687.813 431.503 664.999 430.532C642.185 431.018 614.518 387.333 559.667 407.234C594.131 416.942 611.605 447.035 623.255 472.76C635.39 472.76 659.66 481.982 669.853 489.263H603.353V506.251C603.353 514.018 609.664 519.842 616.945 519.842C646.069 519.842 658.204 524.696 669.368 531.977H630.05C624.226 531.977 619.857 536.83 619.857 542.17C619.857 547.509 624.226 552.363 630.05 552.363H635.39V784.86C652.864 789.228 669.853 799.421 669.853 799.421H635.875C627.138 799.421 620.342 806.216 620.342 814.953C620.342 823.69 627.138 830.485 635.39 830.485V862.035C635.39 867.86 631.021 872.228 625.196 872.228C619.372 872.228 615.003 867.86 615.003 862.035V851.842H528.602V913.485C529.572 914.456 536.853 924.649 536.853 924.649C537.339 924.649 547.047 913.485 565.977 913.485C584.908 913.485 602.383 925.135 602.383 942.123C602.383 958.626 584.908 970.76 565.977 970.76C547.047 970.76 537.339 959.597 536.853 959.597C536.853 959.597 529.087 970.275 528.602 970.76V1032.4H615.003V1022.21C615.003 1016.39 619.372 1012.02 625.196 1012.02C631.021 1012.02 635.39 1016.87 635.39 1022.21V1047.94C635.39 1063.95 648.496 1077.54 664.999 1077.54C681.503 1077.54 694.609 1063.95 694.609 1047.94V830.971C702.861 830.971 710.142 823.69 710.142 815.439C710.142 807.187 703.346 799.906 694.609 799.906V553.333H699.948C705.773 553.333 710.142 548.965 710.142 543.14C710.142 537.316 705.773 532.947 699.948 532.947H694.609V520.813H713.054C720.82 520.813 726.645 514.503 726.645 507.222V490.234H700.434C709.171 466.45 727.616 419.854 770.331 408.205V407.234ZM649.952 765.93V571.778C649.952 571.778 665.485 599.93 665.485 668.854C665.485 737.778 649.952 765.93 649.952 765.93ZM649.952 1052.3V851.842C649.952 851.842 665.485 903.293 665.485 951.831C665.485 1000.37 649.952 1051.82 649.952 1051.82V1052.3Z" fill="#FBF1E6"/>
</g>
<defs>
<clipPath id="clip0_646_9734">
<rect width="1330" height="1494" fill="white"/>
</clipPath>
</defs>
</svg>
